<svg
  width="1304"
  height="956"
  viewBox="0 0 1304 956"
  fill="none"
  xmlns="http://www.w3.org/2000/svg"
>
  <circle cx="327" cy="859" r="16" fill="#0580ee" />
  <circle cx="327" cy="859" r="16" fill="url(#paint14_linear_0_1)" />
  <path
    d="M320.816 863V854.6H322.352V863H320.816ZM327.652 863.144C326.86 863.144 326.168 862.964 325.576 862.604C324.984 862.244 324.524 861.744 324.196 861.104C323.868 860.456 323.704 859.704 323.704 858.848C323.704 857.984 323.872 857.224 324.208 856.568C324.552 855.904 325.036 855.388 325.66 855.02C326.292 854.644 327.04 854.456 327.904 854.456C328.888 854.456 329.704 854.692 330.352 855.164C331 855.636 331.42 856.288 331.612 857.12H329.896C329.768 856.728 329.536 856.424 329.2 856.208C328.864 855.984 328.432 855.872 327.904 855.872C327.064 855.872 326.416 856.14 325.96 856.676C325.504 857.204 325.276 857.932 325.276 858.86C325.276 859.788 325.5 860.508 325.948 861.02C326.404 861.524 327.02 861.776 327.796 861.776C328.556 861.776 329.128 861.572 329.512 861.164C329.904 860.748 330.14 860.204 330.22 859.532H328.096V858.38H331.768V863H330.352L330.232 861.896C329.96 862.296 329.62 862.604 329.212 862.82C328.804 863.036 328.284 863.144 327.652 863.144Z"
    fill="white"
  />
</svg>