<svg
      width="1304"
      height="956"
      viewBox="0 0 1304 956"
      fill="none"
      xmlns="http://www.w3.org/2000/svg"
    >
      <path
        fill-rule="evenodd"
        clip-rule="evenodd"
        d="M776.079 769.917C781.289 768.694 786.711 768.694 791.921 769.917C799.444 771.681 805.319 777.556 807.083 785.079C808.306 790.289 808.306 795.711 807.083 800.921C805.319 808.444 799.444 814.319 791.921 816.083C786.711 817.306 781.289 817.306 776.079 816.083C768.556 814.319 762.681 808.444 760.917 800.921C759.694 795.711 759.694 790.289 760.917 785.079C762.681 777.556 768.556 771.681 776.079 769.917ZM787.973 787.7C788.807 787.366 789.634 788.193 789.301 789.027L787.22 794.229C786.857 795.137 786.137 795.856 785.229 796.22L780.027 798.3C779.194 798.634 778.366 797.807 778.7 796.973L780.781 791.771C781.144 790.863 781.863 790.144 782.772 789.78L787.973 787.7ZM792.145 790.165C793.479 786.83 790.17 783.522 786.836 784.855L781.634 786.936C779.947 787.611 778.611 788.947 777.936 790.634L775.856 795.835C774.522 799.17 777.831 802.478 781.165 801.145L786.367 799.064C788.053 798.389 789.39 797.053 790.064 795.366L792.145 790.165Z"
        fill="#0580ee"
      />
      <path
        fill-rule="evenodd"
        clip-rule="evenodd"
        d="M776.079 769.917C781.289 768.694 786.711 768.694 791.921 769.917C799.444 771.681 805.319 777.556 807.083 785.079C808.306 790.289 808.306 795.711 807.083 800.921C805.319 808.444 799.444 814.319 791.921 816.083C786.711 817.306 781.289 817.306 776.079 816.083C768.556 814.319 762.681 808.444 760.917 800.921C759.694 795.711 759.694 790.289 760.917 785.079C762.681 777.556 768.556 771.681 776.079 769.917ZM787.973 787.7C788.807 787.366 789.634 788.193 789.301 789.027L787.22 794.229C786.857 795.137 786.137 795.856 785.229 796.22L780.027 798.3C779.194 798.634 778.366 797.807 778.7 796.973L780.781 791.771C781.144 790.863 781.863 790.144 782.772 789.78L787.973 787.7ZM792.145 790.165C793.479 786.83 790.17 783.522 786.836 784.855L781.634 786.936C779.947 787.611 778.611 788.947 777.936 790.634L775.856 795.835C774.522 799.17 777.831 802.478 781.165 801.145L786.367 799.064C788.053 798.389 789.39 797.053 790.064 795.366L792.145 790.165Z"
        fill="url(#paint9_linear_0_1)"
      />
    </svg>