<svg
      width="1304"
      height="956"
      viewBox="0 0 1304 956"
      fill="none"
      xmlns="http://www.w3.org/2000/svg"
    >
      <path
        d="M652.843 867.416C650.479 866.861 648.019 866.861 645.655 867.416C642.559 868.142 640.142 870.559 639.416 873.655C638.861 876.019 638.861 878.479 639.416 880.843C640.142 883.939 642.559 886.357 645.655 887.083C648.019 887.637 650.479 887.637 652.843 887.083C655.939 886.357 658.357 883.939 659.083 880.843C659.637 878.479 659.637 876.019 659.083 873.655C658.357 870.559 655.939 868.142 652.843 867.416Z"
        fill="#0580ee"
      />
      <path
        d="M652.843 867.416C650.479 866.861 648.019 866.861 645.655 867.416C642.559 868.142 640.142 870.559 639.416 873.655C638.861 876.019 638.861 878.479 639.416 880.843C640.142 883.939 642.559 886.357 645.655 887.083C648.019 887.637 650.479 887.637 652.843 887.083C655.939 886.357 658.357 883.939 659.083 880.843C659.637 878.479 659.637 876.019 659.083 873.655C658.357 870.559 655.939 868.142 652.843 867.416Z"
        fill="url(#paint4_linear_0_1)"
      />
      <path
        d="M652.843 894.917C650.479 894.363 648.019 894.363 645.655 894.917C642.559 895.643 640.142 898.061 639.416 901.157C638.861 903.521 638.861 905.981 639.416 908.345C640.142 911.441 642.559 913.858 645.655 914.584C648.019 915.139 650.479 915.139 652.843 914.584C655.939 913.858 658.357 911.441 659.083 908.345C659.637 905.981 659.637 903.521 659.083 901.157C658.357 898.061 655.939 895.643 652.843 894.917Z"
        fill="#0580ee"
      />
      <path
        d="M652.843 894.917C650.479 894.363 648.019 894.363 645.655 894.917C642.559 895.643 640.142 898.061 639.416 901.157C638.861 903.521 638.861 905.981 639.416 908.345C640.142 911.441 642.559 913.858 645.655 914.584C648.019 915.139 650.479 915.139 652.843 914.584C655.939 913.858 658.357 911.441 659.083 908.345C659.637 905.981 659.637 903.521 659.083 901.157C658.357 898.061 655.939 895.643 652.843 894.917Z"
        fill="url(#paint5_linear_0_1)"
      />
      <path
        d="M680.345 867.416C677.981 866.861 675.521 866.861 673.157 867.416C670.061 868.142 667.643 870.559 666.917 873.655C666.363 876.019 666.363 878.479 666.917 880.843C667.643 883.939 670.061 886.357 673.157 887.083C675.521 887.637 677.981 887.637 680.345 887.083C683.441 886.357 685.858 883.939 686.584 880.843C687.139 878.479 687.139 876.019 686.584 873.655C685.858 870.559 683.441 868.142 680.345 867.416Z"
        fill="#0580ee"
      />
      <path
        d="M680.345 867.416C677.981 866.861 675.521 866.861 673.157 867.416C670.061 868.142 667.643 870.559 666.917 873.655C666.363 876.019 666.363 878.479 666.917 880.843C667.643 883.939 670.061 886.357 673.157 887.083C675.521 887.637 677.981 887.637 680.345 887.083C683.441 886.357 685.858 883.939 686.584 880.843C687.139 878.479 687.139 876.019 686.584 873.655C685.858 870.559 683.441 868.142 680.345 867.416Z"
        fill="url(#paint6_linear_0_1)"
      />
      <path
        d="M680.345 894.917C677.981 894.363 675.521 894.363 673.157 894.917C670.061 895.643 667.643 898.061 666.917 901.157C666.363 903.521 666.363 905.981 666.917 908.345C667.643 911.441 670.061 913.858 673.157 914.584C675.521 915.139 677.981 915.139 680.345 914.584C683.441 913.858 685.858 911.441 686.584 908.345C687.139 905.981 687.139 903.521 686.584 901.157C685.858 898.061 683.441 895.643 680.345 894.917Z"
        fill="#0580ee"
      />
      <path
        d="M680.345 894.917C677.981 894.363 675.521 894.363 673.157 894.917C670.061 895.643 667.643 898.061 666.917 901.157C666.363 903.521 666.363 905.981 666.917 908.345C667.643 911.441 670.061 913.858 673.157 914.584C675.521 915.139 677.981 915.139 680.345 914.584C683.441 913.858 685.858 911.441 686.584 908.345C687.139 905.981 687.139 903.521 686.584 901.157C685.858 898.061 683.441 895.643 680.345 894.917Z"
        fill="url(#paint7_linear_0_1)"
      />
    </svg>