 <svg
      width="1304"
      height="956"
      viewBox="0 0 1304 956"
      fill="none"
      xmlns="http://www.w3.org/2000/svg"
    >
      <path
        d="M782.085 867V881.406H761.378C763.565 874.668 769.116 869.503 776.079 867.866C778.059 867.4 780.068 867.112 782.085 867Z"
        fill="#0580ee"
      />
      <path
        d="M782.085 867V881.406H761.378C763.565 874.668 769.116 869.503 776.079 867.866C778.059 867.4 780.068 867.112 782.085 867Z"
        fill="url(#paint0_linear_0_1)"
      />
      <path
        d="M785.915 867V896.756H807.521C808.282 892.215 808.136 887.56 807.083 883.062C805.319 875.522 799.444 869.634 791.921 867.866C789.942 867.4 787.932 867.112 785.915 867Z"
        fill="#0580ee"
      />
      <path
        d="M785.915 867V896.756H807.521C808.282 892.215 808.136 887.56 807.083 883.062C805.319 875.522 799.444 869.634 791.921 867.866C789.942 867.4 787.932 867.112 785.915 867Z"
        fill="url(#paint1_linear_0_1)"
      />
      <path
        d="M806.622 900.594H785.915V915C787.932 914.888 789.942 914.6 791.921 914.134C798.884 912.497 804.435 907.332 806.622 900.594Z"
        fill="#0580ee"
      />
      <path
        d="M806.622 900.594H785.915V915C787.932 914.888 789.942 914.6 791.921 914.134C798.884 912.497 804.435 907.332 806.622 900.594Z"
        fill="url(#paint2_linear_0_1)"
      />
      <path
        d="M782.085 915V885.244H760.479C759.718 889.785 759.864 894.44 760.917 898.938C762.681 906.478 768.556 912.366 776.079 914.134C778.059 914.6 780.068 914.888 782.085 915Z"
        fill="#0580ee"
      />
      <path
        d="M782.085 915V885.244H760.479C759.718 889.785 759.864 894.44 760.917 898.938C762.681 906.478 768.556 912.366 776.079 914.134C778.059 914.6 780.068 914.888 782.085 915Z"
        fill="url(#paint3_linear_0_1)"
      />
    </svg>