<svg width="439" height="331" viewBox="0 0 439 331" fill="none" xmlns="http://www.w3.org/2000/svg">
<path d="M75.46 313.26C75.46 313.26 20.84 274.37 5.11999 208.16C-10.6 141.95 13.39 61.68 58.91 21.16C104.43 -19.36 186.36 7.92 222.77 41.85L259.19 75.78C259.19 75.78 293.95 94.78 339.46 93.16C384.97 91.54 425.53 153.58 436.29 202.41C447.05 251.24 421.39 315.78 421.39 315.78L75.46 313.26Z" fill="#DDECFF"/>
<g style="mix-blend-mode:multiply">
<path d="M50.64 323.19C50.64 323.19 12.57 302.5 2.63998 254.5C-7.29002 206.5 35.74 162.64 39.88 138.64C44.02 114.64 34.88 84.85 72.98 61.64C111.08 38.43 178.91 46.78 204.57 41C230.23 35.22 260 -4.52999 311.33 4.57001C362.66 13.67 412.33 40.99 414.77 100.57C417.21 160.15 398.22 161.81 417.26 194.09C436.3 226.37 443.74 248.71 434.64 281.81C425.54 314.91 406.5 324 406.5 324L50.64 323.19Z" fill="#DDECFF"/>
</g>
<g style="mix-blend-mode:multiply">
<path d="M130.12 312.43C127.76 309.95 93.02 240.43 131.7 176.71C170.38 112.99 267.48 120.43 306.15 145.26C344.82 170.09 363.78 202.37 367.73 236.26C371.68 270.15 345.62 323.15 345.62 323.15L130.12 312.43Z" fill="#DDECFF"/>
</g>
<path d="M402.46 163.12H357.84C355.079 163.12 352.84 165.359 352.84 168.12V190.4C352.84 193.161 355.079 195.4 357.84 195.4H402.46C405.221 195.4 407.46 193.161 407.46 190.4V168.12C407.46 165.359 405.221 163.12 402.46 163.12Z" fill="#60A8FF"/>
<path d="M380.15 208.02L387.22 191.26H373.08L380.15 208.02Z" fill="#60A8FF"/>
<path d="M379.98 173.72H392.76V175.59L399.02 171.98L392.76 168.37V170.24H379.98V173.72Z" fill="#223A7A"/>
<path d="M399.02 181.06H386.25V179.2L379.98 182.81L386.25 186.42V184.55H399.02V181.06Z" fill="white"/>
<path d="M372.14 184.35L371.54 184.57C370.372 183.206 369.403 181.685 368.66 180.05C368.038 178.374 367.7 176.607 367.66 174.82L368.1 174.63L365.4 168.17C364.874 168.577 364.43 169.079 364.09 169.65C362.56 172.24 362.71 176.2 364.25 180.07C365.79 183.94 367.43 187.4 370.43 189.57C371.047 190.081 371.762 190.461 372.53 190.688C373.298 190.914 374.104 190.983 374.9 190.89L372.14 184.35Z" fill="#223A7A"/>
<path d="M374.08 183.59L373.24 183.89L376.01 190.51C376.297 190.416 376.575 190.295 376.84 190.15C377.184 189.963 377.448 189.656 377.583 189.288C377.717 188.92 377.713 188.515 377.57 188.15L376.13 184.52C375.978 184.128 375.678 183.811 375.295 183.637C374.911 183.463 374.475 183.446 374.08 183.59V183.59Z" fill="#223A7A"/>
<path d="M367.49 167C367.116 167.139 366.755 167.309 366.41 167.51L369.17 174.11L370.1 173.73C370.485 173.564 370.79 173.257 370.954 172.871C371.118 172.486 371.127 172.052 370.98 171.66L369.53 168C369.389 167.599 369.096 167.27 368.715 167.082C368.333 166.895 367.893 166.866 367.49 167V167Z" fill="#223A7A"/>
<path d="M117.22 301.26V226.78C117.22 226.78 116.39 206.71 126.95 200.92C137.51 195.13 181.95 198.23 181.95 198.23V301.23L117.22 301.26Z" fill="#1C83FF"/>
<path d="M195.88 128.5C195.88 128.5 193.19 151.06 192.15 152.92L191.15 154.78L186 158.3C186 158.3 195.93 172.37 208.13 174.64C220.33 176.91 219.31 169.64 219.31 169.64L217.44 165.7L219.93 144.19C219.93 144.19 197.74 134.09 195.88 128.5Z" fill="#FF9D8C"/>
<path d="M179.53 160.16L187.6 156.64C187.6 156.64 192.77 165.12 204.77 170.09C216.77 175.06 216.98 172.16 217.6 170.09C217.94 168.649 217.867 167.141 217.39 165.74L218.28 158.5L223.08 160.1L239.74 294.85L196.91 296.92L179.53 160.16Z" fill="white"/>
<path d="M219.05 158.64C219.05 158.64 221.95 165.33 224.64 181.06C227.33 196.79 229.81 223.26 230.43 241.47C231.05 259.68 231.43 301.26 231.43 301.26H285.43C286.05 301.26 289.78 280.78 289.78 280.78C289.78 280.78 266.22 260.57 265 257.26C264.17 255.06 264.59 214.16 261.07 195.33C257.55 176.5 253 172.71 243.46 168C233.63 163.17 219.05 158.64 219.05 158.64Z" fill="#223A7A"/>
<path d="M247.19 277.56C247.057 277.56 246.93 277.507 246.836 277.414C246.743 277.32 246.69 277.193 246.69 277.06C246.69 275.58 246.42 254.56 246.17 234.23C245.92 213.9 245.65 192.89 245.65 191.4C245.65 191.267 245.703 191.14 245.796 191.046C245.89 190.953 246.017 190.9 246.15 190.9C246.283 190.9 246.41 190.953 246.504 191.046C246.597 191.14 246.65 191.267 246.65 191.4C246.65 192.88 246.92 213.9 247.17 234.22C247.42 254.54 247.69 275.57 247.69 277.06C247.687 277.192 247.634 277.317 247.541 277.411C247.447 277.504 247.322 277.557 247.19 277.56V277.56Z" fill="#8593B6"/>
<path d="M139.6 272.5L139.19 301.26H202.08C202.08 301.26 204.77 276.85 203.74 274.57C202.71 272.29 139.6 272.5 139.6 272.5Z" fill="#223A7A"/>
<g style="mix-blend-mode:multiply">
<g style="mix-blend-mode:multiply">
<path d="M209.6 152.3C212.276 154.312 215.244 155.903 218.4 157.02L219.88 144.23C219.88 144.23 203.25 136.61 197.61 130.94C198.79 137.38 201.69 145.91 209.6 152.3Z" fill="#8E9BBB"/>
</g>
</g>
<path d="M239.33 86.5C242.114 91.6311 243.87 97.2562 244.5 103.06C245.33 112.16 244.5 135.54 237.05 145.47C229.6 155.4 214.05 152.47 207.05 146.47C200.59 140.97 194.22 134.89 192.57 122.89C190.92 110.89 196.08 88.13 210.77 83.37C225.46 78.61 239.33 86.5 239.33 86.5Z" fill="#FF9D8C"/>
<path d="M258 288.26C258 288.26 257.27 288.26 256.16 288.26H255.31L251.63 288.16H250.75C249.45 288.16 248.34 288.29 247.3 288.23C247.08 288.23 246.76 288.23 246.5 288.23C246.39 288.239 246.28 288.239 246.17 288.23C245.689 288.121 245.227 287.939 244.8 287.69C237.782 285.904 230.58 284.945 223.34 284.83C214.1 284.83 205.81 285.5 204.46 284.37C203.11 283.24 202.28 271.61 210.17 270.85L219.87 274.53C219.87 274.53 242.02 271.9 250.14 277.89C258.26 283.88 258 288.26 258 288.26Z" fill="#FF9D8C"/>
<path d="M247.26 288.16C247.04 288.16 246.72 288.16 246.46 288.16C246.206 287.759 245.922 287.378 245.61 287.02C243.11 284.47 237.07 282.82 234.88 282.29C234.784 282.266 234.701 282.206 234.649 282.122C234.596 282.038 234.579 281.937 234.6 281.84C234.612 281.791 234.633 281.745 234.662 281.705C234.692 281.665 234.729 281.63 234.772 281.604C234.815 281.578 234.862 281.561 234.912 281.553C234.961 281.546 235.011 281.548 235.06 281.56C238.25 282.33 245.06 284.3 246.94 287.56C247 287.65 247.16 288 247.26 288.16Z" fill="#223A7A"/>
<path d="M251.62 288.11C251.33 288.11 251.03 288.11 250.74 288.11C248.01 283.11 243.55 281.71 238.03 279.93L237.7 279.82C237.653 279.804 237.61 279.779 237.573 279.747C237.536 279.715 237.506 279.675 237.484 279.631C237.462 279.587 237.449 279.539 237.446 279.49C237.443 279.441 237.449 279.392 237.465 279.345C237.481 279.298 237.506 279.255 237.538 279.218C237.57 279.181 237.61 279.151 237.654 279.129C237.698 279.107 237.746 279.094 237.795 279.091C237.844 279.088 237.893 279.094 237.94 279.11L238.26 279.22C244.09 281.06 248.79 282.56 251.62 288.11Z" fill="#223A7A"/>
<path d="M256.15 288.22H255.3C253.795 285.526 251.734 283.183 249.255 281.345C246.776 279.507 243.935 278.217 240.92 277.56C240.87 277.553 240.822 277.536 240.779 277.509C240.736 277.483 240.699 277.448 240.67 277.407C240.641 277.366 240.621 277.319 240.61 277.27C240.6 277.22 240.6 277.169 240.61 277.12C240.632 277.025 240.688 276.942 240.767 276.887C240.847 276.831 240.944 276.808 241.04 276.82C248.51 278.22 254.54 284.31 256.15 288.22Z" fill="#223A7A"/>
<path d="M197.53 112.68C200.883 110.753 203.584 107.87 205.29 104.4C207.202 100.841 208.163 96.849 208.08 92.81C208.08 92.81 213.88 91.88 222.57 94.47C231.26 97.06 241.57 100.57 250.29 95.61C259.01 90.65 258.98 82.68 254.74 79.37C249.99 75.66 240.57 77.92 240.57 77.92C240.57 77.92 244.19 74.4 242.22 72.33C240.25 70.26 233.12 72.95 233.12 72.95C233.12 72.95 224.43 66.02 207.98 66.85C191.53 67.68 183.67 79.16 182.74 92C181.81 104.84 186.46 117.65 186.46 117.65L197.53 112.68Z" fill="#223A7A"/>
<g style="mix-blend-mode:multiply">
<g style="mix-blend-mode:multiply">
<path d="M230.9 115.79C229.97 118.08 229.99 120.79 229.76 123.19C229.58 125.09 229.23 127.3 230.97 128.58C231.8 129.19 235.72 130.84 233.7 132.18C232.774 132.565 231.758 132.679 230.77 132.51C230.16 132.51 229.55 132.51 228.95 132.41C228.35 132.31 227.66 132.17 227.02 132.16C226.939 132.163 226.861 132.192 226.798 132.242C226.735 132.293 226.689 132.362 226.668 132.44C226.647 132.518 226.651 132.601 226.68 132.677C226.709 132.752 226.762 132.816 226.83 132.86C228 133.468 229.302 133.777 230.62 133.76C231.698 133.882 232.788 133.691 233.76 133.21C234.115 133.082 234.432 132.868 234.684 132.587C234.935 132.306 235.113 131.967 235.2 131.6C235.203 131.156 235.09 130.718 234.873 130.331C234.655 129.943 234.341 129.619 233.96 129.39C233.18 128.81 232.22 128.54 231.43 127.97C230.33 127.19 230.43 125.87 230.5 124.64C230.68 121.7 231.36 118.81 231.62 115.88C231.62 115.44 231.04 115.44 230.9 115.79V115.79Z" fill="#8E9BBB"/>
</g>
</g>
<path d="M239.36 122.66C239.05 124.41 237.78 125.66 236.53 125.42C235.28 125.18 234.53 123.6 234.81 121.86C235.09 120.12 236.39 118.86 237.64 119.1C238.89 119.34 239.67 120.92 239.36 122.66Z" fill="#223A7A"/>
<path d="M223.53 121.28C223.25 123.16 221.92 124.53 220.53 124.28C219.14 124.03 218.3 122.39 218.58 120.51C218.86 118.63 220.19 117.27 221.58 117.51C222.97 117.75 223.81 119.4 223.53 121.28Z" fill="#223A7A"/>
<path d="M235.67 115.48C236.67 115.64 237.62 115.48 238.59 115.54L239.29 115.61H239.21H239.36L239.73 115.68C239.93 115.73 240.13 115.81 240.34 115.86C240.534 115.906 240.731 115.933 240.93 115.94L241.25 115.89H241.05C241.183 115.898 241.317 115.898 241.45 115.89C241.718 115.809 241.944 115.627 242.082 115.383C242.22 115.139 242.259 114.852 242.19 114.58C242.149 114.427 242.077 114.285 241.98 114.16C241.98 114.1 241.89 114.05 241.85 114L241.97 114.13L241.84 113.96C241.785 113.87 241.71 113.795 241.62 113.74L241.38 113.56C241.106 113.389 240.805 113.267 240.49 113.2C239.908 113.054 239.31 112.977 238.71 112.97C238.121 112.976 237.533 113.023 236.95 113.11C236.409 113.172 235.891 113.364 235.44 113.67C235.272 113.772 235.138 113.921 235.054 114.099C234.971 114.277 234.941 114.476 234.97 114.67C234.996 114.859 235.076 115.037 235.2 115.182C235.324 115.328 235.487 115.434 235.67 115.49V115.48Z" fill="#223A7A"/>
<path d="M224.64 112.71C224.509 112.63 224.372 112.56 224.23 112.5C224.12 112.45 223.8 112.28 224.04 112.41L223.77 112.27C223.371 112.074 222.952 111.923 222.52 111.82C221.573 111.584 220.591 111.516 219.62 111.62C218.608 111.699 217.626 112.007 216.75 112.52C216.617 112.592 216.493 112.679 216.38 112.78L216.18 113.05V112.96C216.045 113.054 215.935 113.18 215.86 113.326C215.785 113.473 215.747 113.635 215.75 113.8C215.75 113.954 215.792 114.105 215.871 114.237C215.95 114.369 216.064 114.478 216.2 114.55C216.358 114.617 216.528 114.651 216.7 114.651C216.872 114.651 217.042 114.617 217.2 114.55H216.68C216.937 114.605 217.203 114.605 217.46 114.55C217.46 114.55 217.74 114.48 217.56 114.55C217.38 114.62 217.84 114.55 217.89 114.55C217.94 114.55 218.26 114.55 217.89 114.55H218.07L218.54 114.5C219.22 114.5 219.9 114.42 220.59 114.4C221.28 114.38 221.87 114.4 222.51 114.4H223.32C223.47 114.4 223.41 114.4 223.32 114.4H223.49L223.83 114.51C224.053 114.561 224.287 114.535 224.492 114.435C224.698 114.335 224.863 114.167 224.96 113.96C225.043 113.746 225.049 113.509 224.978 113.291C224.907 113.072 224.763 112.885 224.57 112.76L224.64 112.71Z" fill="#223A7A"/>
<path d="M229.55 141.47C230.576 139.571 232.225 138.084 234.22 137.26C232.49 137.08 224.31 136.33 222.22 137.5C219.91 138.81 222.65 144.09 227.43 144.35C227.898 144.375 228.368 144.349 228.83 144.27C228.87 143.296 229.116 142.342 229.55 141.47Z" fill="#223A7A"/>
<path d="M191.74 130.37C191.74 130.37 192.57 133.57 197.33 137.3C200.945 139.912 204.863 142.074 209 143.74L209.55 141.33C209.55 141.33 202.41 138.23 199.1 134.81C195.79 131.39 195.38 129.54 195.38 129.54L191.74 130.37Z" fill="#DEE1EB"/>
<path d="M210.36 139.55C211.802 139.466 213.227 139.905 214.371 140.787C215.516 141.669 216.303 142.934 216.59 144.35C216.86 146.35 215.02 148.51 210.72 146.58C205.37 144.18 206.53 139.72 210.36 139.55Z" fill="#223A7A"/>
<path d="M194.74 106.68C194.74 106.68 196.39 94.79 204.36 86.68C219.57 71.27 232.5 72.2 232.5 72.2C232.5 72.2 232.39 70.03 227.5 68.37C222.94 66.82 220.88 67.65 220.88 67.65C220.88 67.65 208.36 68.65 197.81 80.37C187.26 92.09 186.15 107 186.15 107L194.74 106.68Z" fill="#DEE1EB"/>
<path d="M193.6 105.23C183.6 103.54 178.08 111.33 177.67 119.23C177.26 127.13 183 133 190.6 132.43C207.77 131.09 205.81 107.3 193.6 105.23Z" fill="white"/>
<path d="M188.64 124.79C187.383 124.809 186.145 124.479 185.065 123.837C183.984 123.194 183.103 122.264 182.52 121.15C181.851 119.944 181.525 118.578 181.576 117.2C181.627 115.821 182.054 114.483 182.81 113.33C182.838 113.289 182.873 113.254 182.914 113.227C182.955 113.2 183.001 113.182 183.049 113.172C183.098 113.163 183.147 113.163 183.195 113.173C183.244 113.183 183.289 113.202 183.33 113.23C183.371 113.258 183.406 113.293 183.433 113.334C183.46 113.375 183.478 113.421 183.488 113.469C183.497 113.518 183.497 113.567 183.487 113.615C183.477 113.664 183.458 113.709 183.43 113.75C182.758 114.785 182.38 115.982 182.336 117.215C182.292 118.448 182.584 119.67 183.18 120.75C183.708 121.779 184.523 122.633 185.525 123.209C186.528 123.786 187.675 124.06 188.83 124C189.906 123.996 190.965 123.727 191.912 123.216C192.859 122.704 193.666 121.967 194.26 121.07C194.958 119.993 195.395 118.767 195.537 117.492C195.68 116.216 195.523 114.925 195.08 113.72C194.669 112.589 193.904 111.621 192.898 110.96C191.893 110.299 190.701 109.98 189.5 110.05C189.451 110.057 189.402 110.054 189.354 110.042C189.307 110.03 189.262 110.008 189.223 109.978C189.184 109.948 189.151 109.911 189.126 109.868C189.102 109.826 189.086 109.779 189.08 109.73C189.069 109.632 189.095 109.534 189.155 109.455C189.215 109.377 189.303 109.325 189.4 109.31C190.773 109.204 192.143 109.553 193.298 110.303C194.453 111.053 195.328 112.163 195.79 113.46C196.265 114.773 196.431 116.178 196.275 117.565C196.119 118.953 195.645 120.285 194.89 121.46C194.23 122.45 193.338 123.263 192.293 123.831C191.247 124.399 190.08 124.704 188.89 124.72L188.64 124.79Z" fill="#818FB3"/>
<path d="M181.39 157.26C181.39 157.26 151.19 164.71 140.64 176.71C130.09 188.71 125.12 247.88 124.91 258.85C124.7 269.82 132.36 274.37 136.91 277.47C141.46 280.57 161.53 286.16 177.67 286.99C193.81 287.82 209.12 286.99 209.12 286.99C209.307 283.954 210.136 280.993 211.55 278.3C213.85 273.5 216.77 272.5 216.77 272.5L202.91 267.5C202.91 267.5 200.48 224 196.7 203C192.36 178.78 181.39 157.26 181.39 157.26Z" fill="#223A7A"/>
<path d="M231.46 260.59C231.394 260.603 231.326 260.603 231.26 260.59C231.139 260.535 231.046 260.435 230.999 260.312C230.952 260.188 230.956 260.051 231.01 259.93C233.84 253.54 236.77 241.01 238.42 232.21L238.56 231.5C239.06 228.91 239.68 225.69 238.44 223.5C237.8 222.37 236.37 219.91 235 217.55C233.63 215.19 232.23 212.78 231.85 212.09C231.12 210.74 233.42 207.09 236.74 202.18C237.63 200.84 238.41 199.69 238.86 198.91C240.05 196.91 239.26 194.98 238.35 192.81L238 192C237.18 190 236.24 187.94 235.33 186L234.22 183.58C233.73 182.51 233.22 181.43 232.75 180.32C229.889 173.536 226.633 166.924 223 160.52C222.934 160.404 222.916 160.267 222.949 160.138C222.983 160.009 223.066 159.899 223.18 159.83C223.236 159.796 223.299 159.774 223.364 159.765C223.428 159.755 223.495 159.759 223.558 159.776C223.621 159.793 223.681 159.822 223.733 159.862C223.785 159.903 223.828 159.953 223.86 160.01C227.534 166.435 230.83 173.07 233.73 179.88L235.2 183.13L236.31 185.54C237.22 187.54 238.16 189.54 239 191.61L239.31 192.35C240.24 194.57 241.2 196.86 239.77 199.35C239.3 200.16 238.52 201.35 237.61 202.68C235.88 205.26 232.27 210.63 232.77 211.55C233.14 212.23 234.48 214.55 235.9 216.99C237.32 219.43 238.72 221.82 239.35 222.99C240.77 225.53 240.11 228.94 239.58 231.69L239.44 232.39C238.84 235.6 235.65 252 231.96 260.33C231.912 260.419 231.839 260.491 231.75 260.537C231.661 260.584 231.56 260.602 231.46 260.59Z" fill="#8593B6"/>
<path d="M202 262.35C201.934 262.351 201.869 262.338 201.809 262.312C201.749 262.286 201.695 262.248 201.65 262.2C199.29 259.83 187.96 240.2 187.11 236.51C186.65 234.51 187.81 229.36 188.93 224.4C189.8 220.56 190.7 216.59 190.45 215.52C190.06 213.91 187.16 211.52 184.36 209.25C180.97 206.48 177.47 203.62 176.79 201.04C176.02 198.11 176.68 179.78 177.12 167.65C177.27 163.28 177.4 159.84 177.4 158.65C177.4 158.517 177.453 158.39 177.546 158.296C177.64 158.203 177.767 158.15 177.9 158.15C178.033 158.15 178.16 158.203 178.254 158.296C178.347 158.39 178.4 158.517 178.4 158.65C178.4 159.89 178.27 163.35 178.12 167.72C177.71 179.06 177.03 198.04 177.76 200.83C178.36 203.09 181.88 205.97 184.99 208.52C188.1 211.07 190.99 213.39 191.42 215.32C191.73 216.62 190.88 220.32 189.91 224.66C188.91 229.29 187.68 234.52 188.09 236.33C188.92 239.94 200.09 259.21 202.36 261.54C202.407 261.586 202.444 261.64 202.469 261.7C202.494 261.76 202.507 261.825 202.507 261.89C202.507 261.955 202.494 262.02 202.469 262.08C202.444 262.14 202.407 262.194 202.36 262.24C202.311 262.282 202.253 262.314 202.191 262.333C202.13 262.352 202.064 262.357 202 262.35V262.35Z" fill="#8593B6"/>
<path d="M161.33 253.76H161.26C161.194 253.751 161.131 253.73 161.073 253.696C161.016 253.663 160.965 253.618 160.925 253.565C160.885 253.512 160.856 253.452 160.84 253.387C160.823 253.323 160.82 253.256 160.83 253.19C161.2 250.59 166.94 198.79 167.2 194.82C167.209 194.687 167.271 194.564 167.371 194.477C167.472 194.389 167.602 194.346 167.735 194.355C167.868 194.364 167.991 194.426 168.078 194.526C168.166 194.627 168.209 194.757 168.2 194.89C167.93 198.89 162.2 250.73 161.82 253.33C161.803 253.448 161.745 253.557 161.655 253.636C161.565 253.715 161.45 253.759 161.33 253.76V253.76Z" fill="#8593B6"/>
<path d="M202.5 267.83C202.437 267.844 202.373 267.844 202.31 267.83C201.04 267.32 195.42 265.42 188.31 263.02C173.95 258.18 154.31 251.55 150.54 249.61C150.423 249.546 150.336 249.44 150.297 249.313C150.258 249.186 150.269 249.048 150.33 248.93C150.392 248.814 150.497 248.727 150.622 248.688C150.747 248.648 150.883 248.66 151 248.72C154.67 250.63 175.11 257.52 188.62 262.08C195.75 264.48 201.39 266.38 202.69 266.91C202.812 266.961 202.908 267.058 202.959 267.179C203.009 267.301 203.01 267.438 202.96 267.56C202.916 267.643 202.849 267.712 202.768 267.76C202.687 267.808 202.594 267.832 202.5 267.83Z" fill="#8593B6"/>
<path d="M195.59 288.46C182.96 288.46 158.46 286.18 139.85 279.6C139.784 279.578 139.724 279.544 139.671 279.499C139.619 279.454 139.576 279.399 139.545 279.337C139.514 279.275 139.495 279.208 139.49 279.139C139.485 279.07 139.493 279.001 139.515 278.935C139.537 278.869 139.571 278.809 139.616 278.756C139.661 278.704 139.716 278.661 139.778 278.63C139.84 278.599 139.907 278.58 139.976 278.575C140.045 278.57 140.114 278.578 140.18 278.6C163.69 286.92 196.58 288.34 202.7 286.97C202.766 286.956 202.834 286.954 202.9 286.966C202.966 286.978 203.029 287.002 203.086 287.039C203.142 287.075 203.191 287.122 203.23 287.177C203.268 287.232 203.296 287.294 203.31 287.36C203.324 287.426 203.326 287.494 203.314 287.56C203.302 287.626 203.278 287.689 203.241 287.746C203.205 287.802 203.158 287.851 203.103 287.89C203.048 287.928 202.986 287.956 202.92 287.97C200.497 288.36 198.043 288.524 195.59 288.46V288.46Z" fill="#8593B6"/>
<path d="M51 164.24C54.92 167.69 59.89 169.9 63.33 173.89C64.69 175.46 65.9 177.13 67.16 178.78C68.08 179.98 70.52 181.96 70.92 183.47C71.09 184.13 71.05 183.23 70.92 182.57V182.49C70.58 179.44 70.33 176.38 70.22 173.31C70.11 170.24 70.31 167.18 70.12 164.12C69.84 159.82 68.5 155.64 64.98 152.94C63.26 151.63 61.04 150.82 59.46 149.36C57.88 147.9 58.56 146.36 59.46 144.83C60.4148 143.438 61.1407 141.902 61.61 140.28C61.8443 138.359 61.3793 136.417 60.3 134.81C58.25 131.37 53.7 127.53 49.4 128.05C45.81 128.48 45.4 132.62 45.46 135.5C45.52 138.38 45.78 141.1 45.81 143.91C45.84 146.72 45.35 149.61 45.31 152.48C45.12 157.36 47.37 161.08 51 164.24Z" fill="#6BAEFF"/>
<path d="M87.41 209C88.4768 206.418 89.7755 203.938 91.29 201.59C93.41 198.34 95.75 195.17 97.17 191.54C98.59 187.91 98.41 183.84 98.55 179.93C98.66 177.06 99.55 174.19 99.28 171.3C99.17 169.92 98.37 167.69 96.59 167.91C95.19 168.09 94.37 169.82 93.83 170.91C92.9522 172.862 92.1941 174.866 91.56 176.91C91.29 177.7 91.03 178.5 90.69 179.26C90.49 179.7 89.85 180.78 89.26 180.64C88.26 180.38 89.16 176.23 89.26 175.5C90.02 171.81 91.17 168.38 91.32 164.58C91.55 159.07 91.13 152.51 85.74 149.5C84.33 148.71 82.55 148.24 81.21 149.42C79.87 150.6 79.51 152.6 79.32 154.25C78.72 159.34 79.91 164.16 81.55 168.94C82.89 172.94 84.49 176.94 84.61 181.2C84.72 185.27 82.61 188.87 81.61 192.72C80.5973 196.414 80.1721 200.244 80.35 204.07C80.35 206.55 80.43 209.01 80.61 211.49C80.78 213.77 80.98 216.04 81.26 218.31C81.26 218.77 81.36 219.25 81.43 219.73C80.55 217.62 80.24 215.21 79.52 213.09C78.23 209.33 76.74 205.64 75.52 201.86C74.576 198.71 73.4645 195.612 72.19 192.58C70.92 189.77 69.4 186.79 67.04 184.72C65.66 183.448 63.8564 182.736 61.98 182.72C60.793 182.816 59.6234 183.065 58.5 183.46C57.8704 183.678 57.1956 183.731 56.5395 183.616C55.8833 183.5 55.2675 183.22 54.75 182.8C50.89 179.8 49.75 174.51 46.86 170.8C44.76 168 39.7 163.23 36 166.28C34 167.9 33.48 171.04 33.59 173.44C33.8586 176.416 34.8921 179.271 36.59 181.73C38.26 184.41 40.41 186.81 41.95 189.56C42.7646 191.092 43.0793 192.84 42.85 194.56C42.5871 196.252 42.6894 197.981 43.15 199.63C44.92 204.63 50.45 203.94 54.75 204.07C57.8367 204.135 60.898 204.644 63.84 205.58C65.387 206.055 66.7969 206.896 67.9509 208.031C69.1048 209.165 69.9688 210.561 70.47 212.1C71.32 214.46 71.78 217.1 73.39 219.15C74.1557 220.078 75.1331 220.809 76.24 221.28C77.92 222.02 83.03 222.34 83.07 221.88C83.3428 220.27 83.7888 218.694 84.4 217.18C85.26 214.42 86.28 211.71 87.41 209Z" fill="#6BAEFF"/>
<path d="M111.14 208.08C110.7 205.21 110.78 202.08 109.42 199.43C109.395 199.387 109.362 199.349 109.322 199.318C109.283 199.287 109.237 199.265 109.189 199.252C109.141 199.239 109.09 199.236 109.041 199.242C108.991 199.249 108.943 199.265 108.9 199.29C107.9 199.83 107.9 201.4 107.8 202.36C107.67 203.96 107.8 205.56 107.57 207.15C107.235 209.989 106.563 212.779 105.57 215.46C105.063 216.829 104.232 218.053 103.146 219.029C102.061 220.005 100.755 220.702 99.34 221.06C97.3913 221.509 95.5454 222.324 93.9 223.46C92.4957 224.653 91.3983 226.165 90.7 227.87C88.7 232.38 87.7 237.41 86.81 242.23C86.18 245.47 85.67 248.73 84.88 251.94C84.0174 255.125 83.3231 258.352 82.8 261.61C82.72 261.78 82.64 261.94 82.57 262.11C82.36 262.6 83.13 262.86 83.39 262.46C86.5 257.67 90.29 253.38 95.45 250.75C97.78 249.56 100.88 249.31 102.83 247.44C104.31 246.02 104.51 243.85 104.29 241.91C104 239.37 102.78 237.28 101.51 235.12C100.81 233.93 99.99 232.65 100.27 231.21C100.459 230.552 100.781 229.941 101.217 229.413C101.652 228.884 102.191 228.451 102.8 228.14C104.94 226.81 107.45 226.21 109.21 224.29C110.819 222.524 111.778 220.264 111.93 217.88C112.032 214.594 111.767 211.307 111.14 208.08V208.08Z" fill="#6BAEFF"/>
<path d="M68.77 224.59C66.0213 221.082 62.7218 218.042 59 215.59C57 214.27 52.33 211.67 51.38 215.59C50.83 217.87 53.06 220.11 54.53 221.54C56.74 223.69 59.29 225.54 61.15 228.02C58.85 228.76 56.44 228.9 54.43 230.5C52.06 232.39 50.99 236.03 53.35 238.35C54.5714 239.399 55.952 240.246 57.44 240.86C59.3 241.75 61.19 242.57 63.09 243.36C67.2 245.08 71.36 246.82 74.86 249.63C78.36 252.44 81.79 257.34 82.07 262.01C82.07 262.46 81.93 262.01 82.19 261.85C82.34 261.98 82.83 261.74 82.83 261.48C82.8375 254.633 81.4208 247.86 78.67 241.59C76.0586 235.549 72.7351 229.842 68.77 224.59V224.59Z" fill="#6BAEFF"/>
<path d="M59.3 160C60.82 163.14 62.4 166.2 64.08 169.26C65.7562 172.159 67.2394 175.166 68.52 178.26C70.01 182.13 71.52 185.94 73.14 189.78C74.7964 193.761 76.2221 197.835 77.41 201.98C79.7407 210.093 81.3569 218.395 82.24 226.79C82.6847 231.051 82.855 235.337 82.75 239.62C82.66 242.96 82.28 246.27 81.97 249.62C81.5668 253.085 81.4731 256.579 81.69 260.06C81.94 262.96 82.4 266.41 84.69 268.48C84.7803 268.559 84.8955 268.605 85.0157 268.609C85.136 268.613 85.2539 268.576 85.3494 268.502C85.445 268.429 85.5122 268.325 85.5397 268.208C85.5671 268.091 85.5531 267.968 85.5 267.86C82.82 262.37 82.97 256.38 83.5 250.42C83.79 247.14 84.18 243.87 84.29 240.57C84.4201 236.369 84.2798 232.163 83.87 227.98C83.0341 219.761 81.5155 211.627 79.33 203.66C78.2307 199.586 76.8951 195.579 75.33 191.66C73.78 187.72 71.98 183.88 70.47 179.92C67.74 172.75 63.57 166.4 59.89 159.72C59.7 159.37 59.2 159.72 59.36 160.03L59.3 160Z" fill="#43588E"/>
<path d="M82.37 218.64C82.8 213.42 83.26 208.4 85.02 203.42C85.84 201.1 86.84 198.84 87.63 196.51C88.28 194.58 89.26 191.94 88.76 189.89C88.7491 189.838 88.7208 189.792 88.6798 189.759C88.6389 189.726 88.5877 189.708 88.535 189.708C88.4823 189.708 88.4312 189.726 88.3902 189.759C88.3493 189.792 88.3209 189.838 88.31 189.89C87.97 191.06 88.01 192.34 87.76 193.54C87.5226 194.706 87.2188 195.858 86.85 196.99C86.08 199.4 85.07 201.71 84.19 204.09C82.4429 208.731 81.6966 213.69 82 218.64C82 218.688 82.019 218.734 82.0527 218.767C82.0865 218.801 82.1323 218.82 82.18 218.82C82.2278 218.82 82.2735 218.801 82.3073 218.767C82.3411 218.734 82.36 218.688 82.36 218.64H82.37Z" fill="#43588E"/>
<path d="M52.12 188.65C54.19 193.65 60.42 193.94 64.96 195.06C66.5087 195.481 67.9572 196.209 69.2197 197.2C70.4822 198.191 71.533 199.426 72.31 200.83C74.1233 204.008 75.5309 207.401 76.5 210.93C76.5 210.93 76.57 210.93 76.56 210.93C75.29 204.93 73.48 197.71 67.29 194.93C62.29 192.69 55.81 193.81 52.64 188.46C52.48 188.2 52 188.37 52.12 188.68V188.65Z" fill="#43588E"/>
<path d="M79.09 217.85C79.34 218.18 79.56 218.53 79.82 218.85C79.9379 219.013 80.0756 219.161 80.23 219.29C80.3858 219.448 80.5898 219.55 80.81 219.58C80.8316 219.581 80.8531 219.576 80.8722 219.566C80.8913 219.556 80.9073 219.541 80.9186 219.523C80.9298 219.504 80.9359 219.483 80.9362 219.462C80.9364 219.44 80.9308 219.419 80.92 219.4C80.7931 219.246 80.6449 219.112 80.48 219L80.04 218.61C79.75 218.33 79.49 218.03 79.2 217.75C79.2 217.7 79.04 217.75 79.09 217.84V217.85Z" fill="#43588E"/>
<path d="M66.14 233.73C69.7596 236.675 72.9534 240.108 75.63 243.93C76.881 245.764 78.0327 247.663 79.08 249.62C80.1383 251.761 81.0731 253.962 81.88 256.21C81.94 256.38 82.25 256.38 82.23 256.21C81.73 251.5 78.75 247.47 76.36 243.55C75.0906 241.596 73.6009 239.794 71.92 238.18C70.254 236.407 68.4261 234.793 66.46 233.36C66.22 233.19 65.9 233.58 66.14 233.78V233.73Z" fill="#43588E"/>
<path d="M94.59 228.18C92.87 229.18 92.82 231.88 92.78 233.61C92.72 236.95 93.54 240.08 92.08 243.26C90.76 246.13 88.65 248.53 86.98 251.19C85.43 253.69 83.9 256.88 83.98 259.88C83.98 260.06 84.25 260.15 84.33 259.98C84.8524 258.562 85.2865 257.112 85.63 255.64C86.1267 254.056 86.8401 252.548 87.75 251.16C89.35 248.68 91.31 246.43 92.61 243.76C93.91 241.09 93.77 238.18 93.68 235.14C93.62 233.2 93.43 230.08 94.99 228.64C95.24 228.41 94.93 228.03 94.64 228.18H94.59Z" fill="#43588E"/>
<path d="M83.08 260.19C76.15 260.1 63 260 63 260L66.26 284.26C66.616 286.9 67.9182 289.322 69.9248 291.074C71.9313 292.827 74.5058 293.792 77.17 293.79H89.1C91.7625 293.79 94.3346 292.824 96.339 291.071C98.3434 289.319 99.6442 286.899 100 284.26L103.22 260C103.22 260 90 260.1 83.08 260.19Z" fill="white"/>
<path d="M418.19 215.61L378.64 293.95L263.32 294.78L298.91 214.5L418.19 215.61Z" fill="#F6F7FA"/>
<path d="M186.8 294.29V288.02H261.44L295.79 212.71H415.19L418.19 215.61H301.57L265.88 294.23C265.88 294.23 186.8 294.08 186.8 294.29Z" fill="#D9DEE8"/>
<path d="M358.31 258.84C357.01 262.75 349.94 265.76 342.52 265.58C335.1 265.4 330.14 262.08 331.44 258.17C332.74 254.26 339.82 251.24 347.24 251.43C354.66 251.62 359.61 254.93 358.31 258.84Z" fill="#D9DEE8"/>
<path d="M265.88 294.73C265.807 294.728 265.736 294.711 265.67 294.68C265.55 294.625 265.456 294.525 265.409 294.402C265.362 294.278 265.366 294.141 265.42 294.02L301.24 215.11H418.24C418.373 215.11 418.5 215.163 418.594 215.256C418.687 215.35 418.74 215.477 418.74 215.61C418.737 215.742 418.684 215.868 418.591 215.961C418.498 216.054 418.372 216.107 418.24 216.11H301.89L266.33 294.44C266.291 294.527 266.228 294.6 266.148 294.652C266.068 294.703 265.975 294.731 265.88 294.73V294.73Z" fill="white"/>
<path d="M181.6 300.23H44.43V330.64H181.6V300.23Z" fill="#596B9B"/>
<path d="M427.62 300.23H180.82V330.64H427.62V300.23Z" fill="#7A89AF"/>
<g style="mix-blend-mode:multiply">
<path d="M181.6 300.23H180.82H44.43V305.81H180.82H181.6H427.62V300.23H181.6Z" fill="#BDC4D7"/>
</g>
<path d="M187.6 294.23H37.81V301.68H187.6V294.23Z" fill="#6F7FA9"/>
<path d="M433.62 294.23H186.82V301.68H433.62V294.23Z" fill="#9CA6C3"/>
<path d="M146.97 99.63H98.55C95.5511 99.63 93.12 102.061 93.12 105.06V129.23C93.12 132.229 95.5511 134.66 98.55 134.66H146.97C149.969 134.66 152.4 132.229 152.4 129.23V105.06C152.4 102.061 149.969 99.63 146.97 99.63Z" fill="white"/>
<path d="M166.19 117.14L148.01 109.47V124.82L166.19 117.14Z" fill="white"/>
<path d="M111.27 120.49C113.12 120.49 114.62 118.99 114.62 117.14C114.62 115.29 113.12 113.79 111.27 113.79C109.42 113.79 107.92 115.29 107.92 117.14C107.92 118.99 109.42 120.49 111.27 120.49Z" fill="#223A7A"/>
<path d="M122.76 120.49C124.61 120.49 126.11 118.99 126.11 117.14C126.11 115.29 124.61 113.79 122.76 113.79C120.91 113.79 119.41 115.29 119.41 117.14C119.41 118.99 120.91 120.49 122.76 120.49Z" fill="#223A7A"/>
<path d="M134.24 120.49C136.09 120.49 137.59 118.99 137.59 117.14C137.59 115.29 136.09 113.79 134.24 113.79C132.39 113.79 130.89 115.29 130.89 117.14C130.89 118.99 132.39 120.49 134.24 120.49Z" fill="#223A7A"/>
<path d="M393.5 25.26H281.7C278.252 25.26 274.946 26.6297 272.508 29.0676C270.07 31.5056 268.7 34.8122 268.7 38.26V91.26C268.7 94.7078 270.07 98.0144 272.508 100.452C274.946 102.89 278.252 104.26 281.7 104.26H291.7C291.98 109.06 291.29 116.26 287.27 125.36C297.234 120.84 305.659 113.506 311.51 104.26H393.51C396.958 104.26 400.264 102.89 402.702 100.452C405.14 98.0144 406.51 94.7078 406.51 91.26V38.26C406.51 36.552 406.173 34.8607 405.519 33.2828C404.866 31.7049 403.907 30.2714 402.699 29.0641C401.491 27.8568 400.056 26.8994 398.478 26.2467C396.9 25.594 395.208 25.2587 393.5 25.26V25.26Z" fill="#60A8FF"/>
<path d="M345.81 50.54H290.36C289.629 50.5374 288.928 50.2457 288.411 49.7287C287.894 49.2117 287.603 48.5112 287.6 47.78V47.78C287.603 47.0488 287.894 46.3483 288.411 45.8313C288.928 45.3143 289.629 45.0226 290.36 45.02H345.81C346.541 45.0226 347.242 45.3143 347.759 45.8313C348.276 46.3483 348.567 47.0488 348.57 47.78V47.78C348.567 48.5112 348.276 49.2117 347.759 49.7287C347.242 50.2457 346.541 50.5374 345.81 50.54V50.54Z" fill="white"/>
<path d="M385.57 66.61H289.29C288.842 66.61 288.412 66.4319 288.095 66.115C287.778 65.7981 287.6 65.3682 287.6 64.92C287.6 64.4718 287.778 64.0419 288.095 63.725C288.412 63.408 288.842 63.23 289.29 63.23H385.57C386.018 63.23 386.448 63.408 386.765 63.725C387.082 64.0419 387.26 64.4718 387.26 64.92C387.26 65.1419 387.216 65.3617 387.131 65.5667C387.046 65.7718 386.922 65.9581 386.765 66.115C386.608 66.2719 386.422 66.3964 386.217 66.4813C386.012 66.5663 385.792 66.61 385.57 66.61Z" fill="#D2E6FF"/>
<path d="M385.57 76H289.29C288.842 76 288.412 75.8219 288.095 75.505C287.778 75.1881 287.6 74.7582 287.6 74.31C287.6 73.8618 287.778 73.4319 288.095 73.115C288.412 72.7981 288.842 72.62 289.29 72.62H385.57C386.018 72.62 386.448 72.7981 386.765 73.115C387.082 73.4319 387.26 73.8618 387.26 74.31C387.26 74.5319 387.216 74.7517 387.131 74.9567C387.046 75.1618 386.922 75.3481 386.765 75.505C386.608 75.6619 386.422 75.7864 386.217 75.8714C386.012 75.9563 385.792 76 385.57 76Z" fill="#D2E6FF"/>
<path d="M364.57 86H289.29C288.842 86 288.412 85.8219 288.095 85.505C287.778 85.1881 287.6 84.7582 287.6 84.31C287.6 83.8618 287.778 83.4319 288.095 83.115C288.412 82.7981 288.842 82.62 289.29 82.62H364.57C365.018 82.62 365.448 82.7981 365.765 83.115C366.082 83.4319 366.26 83.8618 366.26 84.31C366.26 84.7582 366.082 85.1881 365.765 85.505C365.448 85.8219 365.018 86 364.57 86Z" fill="#D2E6FF"/>
<path d="M384.81 50.54H358.36C357.629 50.5374 356.928 50.2457 356.411 49.7287C355.894 49.2117 355.603 48.5112 355.6 47.78V47.78C355.603 47.0488 355.894 46.3483 356.411 45.8313C356.928 45.3143 357.629 45.0226 358.36 45.02H384.81C385.541 45.0226 386.242 45.3143 386.759 45.8313C387.276 46.3483 387.567 47.0488 387.57 47.78V47.78C387.567 48.5112 387.276 49.2117 386.759 49.7287C386.242 50.2457 385.541 50.5374 384.81 50.54V50.54Z" fill="white"/>
<path d="M318.14 147.99H288.11C287.005 147.99 286.11 148.885 286.11 149.99V170.51C286.11 171.615 287.005 172.51 288.11 172.51H318.14C319.245 172.51 320.14 171.615 320.14 170.51V149.99C320.14 148.885 319.245 147.99 318.14 147.99Z" fill="white"/>
<path d="M303.33 163.91C303.159 163.906 302.994 163.847 302.86 163.74L286.51 150.24C286.434 150.174 286.371 150.094 286.326 150.004C286.281 149.915 286.254 149.817 286.246 149.717C286.239 149.616 286.251 149.516 286.283 149.42C286.314 149.325 286.364 149.236 286.43 149.16C286.496 149.084 286.576 149.021 286.665 148.976C286.755 148.931 286.853 148.904 286.953 148.896C287.054 148.889 287.154 148.901 287.25 148.933C287.345 148.964 287.434 149.014 287.51 149.08L303.36 162.18L318.81 148.73C318.884 148.664 318.971 148.614 319.064 148.582C319.158 148.549 319.257 148.536 319.356 148.542C319.455 148.548 319.552 148.573 319.641 148.617C319.73 148.66 319.809 148.721 319.875 148.795C319.941 148.869 319.991 148.956 320.023 149.049C320.056 149.143 320.069 149.242 320.063 149.341C320.057 149.44 320.032 149.537 319.988 149.626C319.945 149.715 319.884 149.794 319.81 149.86L303.88 163.72C303.806 163.788 303.719 163.839 303.625 163.872C303.53 163.905 303.43 163.918 303.33 163.91Z" fill="#6F7FA9"/>
<path d="M287 171.94C286.853 171.943 286.708 171.901 286.585 171.822C286.461 171.742 286.364 171.627 286.306 171.492C286.248 171.356 286.232 171.207 286.259 171.062C286.287 170.918 286.357 170.785 286.46 170.68L297.89 158.68C298.031 158.54 298.221 158.461 298.42 158.461C298.619 158.461 298.809 158.54 298.95 158.68C299.09 158.821 299.169 159.011 299.169 159.21C299.169 159.409 299.09 159.599 298.95 159.74L287.52 171.74C287.452 171.807 287.37 171.86 287.281 171.894C287.191 171.928 287.096 171.944 287 171.94V171.94Z" fill="#6F7FA9"/>
<path d="M319.27 171.5C319.17 171.501 319.07 171.482 318.978 171.445C318.885 171.407 318.801 171.351 318.73 171.28L307.35 159.87C307.21 159.729 307.131 159.539 307.131 159.34C307.131 159.141 307.21 158.951 307.35 158.81C307.419 158.739 307.501 158.683 307.592 158.645C307.683 158.606 307.781 158.586 307.88 158.586C307.979 158.586 308.077 158.606 308.168 158.645C308.259 158.683 308.341 158.739 308.41 158.81L319.8 170.22C319.941 170.362 320.02 170.555 320.02 170.755C320.02 170.955 319.941 171.148 319.8 171.29C319.73 171.359 319.647 171.413 319.556 171.449C319.465 171.485 319.368 171.502 319.27 171.5V171.5Z" fill="#6F7FA9"/>
<path d="M321.7 157.26C327.239 157.26 331.73 152.769 331.73 147.23C331.73 141.691 327.239 137.2 321.7 137.2C316.161 137.2 311.67 141.691 311.67 147.23C311.67 152.769 316.161 157.26 321.7 157.26Z" fill="#FF5F42"/>
<path d="M319.282 147.2L319.258 146.924C319.562 147.06 319.826 147.236 320.05 147.452C320.274 147.668 320.446 147.904 320.566 148.16C320.686 148.416 320.746 148.68 320.746 148.952C320.746 149.408 320.618 149.828 320.362 150.212C320.114 150.588 319.778 150.892 319.354 151.124C318.93 151.348 318.458 151.46 317.938 151.46C317.418 151.46 316.946 151.348 316.522 151.124C316.098 150.892 315.758 150.588 315.502 150.212C315.254 149.828 315.13 149.408 315.13 148.952C315.13 148.584 315.206 148.268 315.358 148.004C315.518 147.732 315.714 147.504 315.946 147.32C316.186 147.136 316.422 146.984 316.654 146.864L316.558 147.2C316.358 147.12 316.162 147.008 315.97 146.864C315.786 146.712 315.634 146.52 315.514 146.288C315.394 146.056 315.334 145.784 315.334 145.472C315.334 145.024 315.45 144.62 315.682 144.26C315.914 143.892 316.226 143.6 316.618 143.384C317.018 143.168 317.458 143.06 317.938 143.06C318.426 143.06 318.862 143.168 319.246 143.384C319.638 143.6 319.95 143.892 320.182 144.26C320.414 144.62 320.53 145.024 320.53 145.472C320.53 145.816 320.462 146.104 320.326 146.336C320.19 146.568 320.026 146.752 319.834 146.888C319.642 147.024 319.458 147.128 319.282 147.2ZM316.774 145.496C316.774 145.712 316.822 145.904 316.918 146.072C317.022 146.24 317.162 146.376 317.338 146.48C317.514 146.576 317.714 146.624 317.938 146.624C318.162 146.624 318.358 146.576 318.526 146.48C318.702 146.376 318.838 146.24 318.934 146.072C319.038 145.904 319.09 145.712 319.09 145.496C319.09 145.176 318.978 144.912 318.754 144.704C318.538 144.488 318.266 144.38 317.938 144.38C317.602 144.38 317.322 144.488 317.098 144.704C316.882 144.912 316.774 145.176 316.774 145.496ZM317.938 150.14C318.322 150.14 318.646 150.024 318.91 149.792C319.174 149.552 319.306 149.264 319.306 148.928C319.306 148.696 319.246 148.488 319.126 148.304C319.006 148.12 318.842 147.976 318.634 147.872C318.426 147.76 318.194 147.704 317.938 147.704C317.682 147.704 317.45 147.76 317.242 147.872C317.034 147.976 316.87 148.12 316.75 148.304C316.63 148.488 316.57 148.696 316.57 148.928C316.57 149.264 316.702 149.552 316.966 149.792C317.23 150.024 317.554 150.14 317.938 150.14ZM324.116 151.58C323.82 151.58 323.504 151.536 323.168 151.448C322.832 151.352 322.556 151.216 322.34 151.04C322.236 150.952 322.152 150.84 322.088 150.704C322.032 150.56 322.004 150.424 322.004 150.296C322.004 150.16 322.06 150.032 322.172 149.912C322.292 149.792 322.46 149.732 322.676 149.732C322.82 149.732 323 149.808 323.216 149.96C323.344 150.04 323.484 150.112 323.636 150.176C323.788 150.24 323.944 150.272 324.104 150.272C324.488 150.272 324.82 150.204 325.1 150.068C325.38 149.924 325.596 149.728 325.748 149.48C325.9 149.232 325.976 148.94 325.976 148.604C325.976 148.3 325.904 148.04 325.76 147.824C325.624 147.608 325.44 147.44 325.208 147.32C324.984 147.2 324.74 147.14 324.476 147.14C324.228 147.14 324.012 147.18 323.828 147.26C323.644 147.34 323.476 147.424 323.324 147.512C323.172 147.592 323.02 147.632 322.868 147.632C322.604 147.632 322.408 147.576 322.28 147.464C322.152 147.344 322.072 147.204 322.04 147.044C322.008 146.884 322 146.74 322.016 146.612L322.388 143.696C322.42 143.528 322.5 143.392 322.628 143.288C322.764 143.176 322.924 143.12 323.108 143.12H326.576C326.768 143.12 326.928 143.184 327.056 143.312C327.184 143.44 327.248 143.6 327.248 143.792C327.248 143.976 327.184 144.132 327.056 144.26C326.928 144.38 326.768 144.44 326.576 144.44H323.48L323.612 144.332L323.288 146.768L323.132 146.312C323.18 146.232 323.284 146.156 323.444 146.084C323.604 146.012 323.788 145.952 323.996 145.904C324.204 145.848 324.408 145.82 324.608 145.82C325.144 145.82 325.624 145.944 326.048 146.192C326.472 146.432 326.804 146.764 327.044 147.188C327.292 147.604 327.416 148.076 327.416 148.604C327.416 149.204 327.28 149.728 327.008 150.176C326.736 150.624 326.352 150.972 325.856 151.22C325.368 151.46 324.788 151.58 324.116 151.58Z" fill="white"/>
<path d="M422.49 126.36H363.87C361.661 126.36 359.87 128.151 359.87 130.36V139.53C359.87 141.739 361.661 143.53 363.87 143.53H422.49C424.699 143.53 426.49 141.739 426.49 139.53V130.36C426.49 128.151 424.699 126.36 422.49 126.36Z" fill="#223A7A"/>
<path d="M368.1 139.45C367.98 139.455 367.861 139.433 367.752 139.384C367.643 139.336 367.546 139.262 367.47 139.17C367.388 139.074 367.327 138.963 367.289 138.842C367.251 138.722 367.238 138.595 367.25 138.47L367.51 136.24C367.51 136.19 367.51 136.15 367.51 136.13C367.51 136.11 367.43 136.13 367.37 136.13L365.54 137.45C365.444 137.53 365.331 137.587 365.21 137.618C365.089 137.649 364.963 137.653 364.84 137.63C364.714 137.607 364.595 137.557 364.492 137.483C364.388 137.408 364.302 137.312 364.24 137.2C364.162 137.086 364.113 136.954 364.097 136.816C364.081 136.678 364.099 136.539 364.15 136.41C364.2 136.299 364.272 136.2 364.361 136.117C364.451 136.035 364.556 135.971 364.67 135.93L366.72 135C366.78 135 366.81 135 366.81 134.92C366.81 134.84 366.81 134.85 366.72 134.83L364.67 133.91C364.55 133.864 364.441 133.792 364.353 133.699C364.265 133.605 364.199 133.493 364.16 133.37C364.124 133.249 364.112 133.122 364.126 132.997C364.14 132.871 364.178 132.75 364.24 132.64C364.303 132.529 364.39 132.432 364.493 132.356C364.596 132.28 364.715 132.227 364.84 132.2C365.085 132.165 365.335 132.222 365.54 132.36L367.37 133.71C367.43 133.71 367.47 133.71 367.51 133.71C367.55 133.71 367.51 133.65 367.51 133.59L367.25 131.37C367.236 131.244 367.249 131.116 367.289 130.995C367.329 130.874 367.394 130.763 367.48 130.67C367.565 130.575 367.67 130.501 367.788 130.453C367.906 130.404 368.033 130.383 368.16 130.39C368.285 130.388 368.409 130.413 368.523 130.465C368.637 130.517 368.738 130.594 368.819 130.69C368.899 130.785 368.957 130.898 368.989 131.019C369.02 131.14 369.024 131.267 369 131.39L368.75 133.61C368.75 133.67 368.75 133.71 368.75 133.73C368.773 133.743 368.799 133.75 368.825 133.75C368.851 133.75 368.877 133.743 368.9 133.73L370.72 132.41C370.82 132.33 370.936 132.272 371.06 132.24C371.184 132.207 371.313 132.2 371.44 132.22C371.564 132.244 371.68 132.297 371.781 132.373C371.881 132.449 371.963 132.547 372.02 132.66C372.099 132.774 372.15 132.905 372.167 133.043C372.184 133.18 372.168 133.32 372.12 133.45C372.011 133.668 371.826 133.839 371.6 133.93L369.54 134.85C369.49 134.85 369.46 134.85 369.46 134.94C369.46 135.03 369.46 135 369.54 135.02L371.6 135.95C371.721 135.997 371.83 136.069 371.92 136.163C372.009 136.256 372.078 136.368 372.12 136.49C372.16 136.611 372.172 136.74 372.154 136.867C372.137 136.993 372.091 137.114 372.02 137.22C371.964 137.333 371.883 137.43 371.782 137.505C371.681 137.58 371.564 137.63 371.44 137.65C371.316 137.675 371.188 137.674 371.065 137.648C370.941 137.623 370.824 137.572 370.72 137.5L368.9 136.15C368.877 136.137 368.851 136.13 368.825 136.13C368.799 136.13 368.773 136.137 368.75 136.15C368.738 136.166 368.731 136.185 368.731 136.205C368.731 136.225 368.738 136.244 368.75 136.26L369 138.49C369.023 138.615 369.016 138.744 368.98 138.865C368.943 138.987 368.878 139.098 368.79 139.19C368.7 139.28 368.592 139.349 368.473 139.394C368.354 139.439 368.227 139.458 368.1 139.45V139.45Z" fill="white"/>
<path d="M380.22 139.45C380.101 139.455 379.982 139.432 379.872 139.383C379.763 139.335 379.667 139.262 379.59 139.17C379.51 139.074 379.449 138.962 379.413 138.841C379.377 138.721 379.366 138.595 379.38 138.47L379.63 136.24C379.63 136.19 379.63 136.15 379.63 136.13C379.63 136.11 379.55 136.13 379.49 136.13L377.66 137.45C377.564 137.53 377.451 137.588 377.33 137.619C377.209 137.65 377.083 137.654 376.96 137.63C376.708 137.558 376.495 137.389 376.366 137.161C376.236 136.933 376.202 136.663 376.27 136.41C376.379 136.192 376.564 136.021 376.79 135.93L378.85 135C378.9 135 378.93 135 378.93 134.92C378.93 134.84 378.93 134.85 378.85 134.83L376.79 133.91C376.671 133.861 376.565 133.788 376.477 133.695C376.389 133.602 376.322 133.491 376.28 133.37C376.216 133.124 376.248 132.863 376.37 132.64C376.432 132.53 376.517 132.433 376.619 132.358C376.72 132.282 376.836 132.228 376.96 132.2C377.205 132.159 377.457 132.216 377.66 132.36L379.49 133.71C379.55 133.71 379.6 133.71 379.63 133.71C379.66 133.71 379.63 133.65 379.63 133.59L379.38 131.37C379.367 131.244 379.38 131.118 379.418 130.997C379.456 130.877 379.518 130.766 379.6 130.67C379.686 130.577 379.792 130.503 379.909 130.455C380.026 130.406 380.153 130.384 380.28 130.39C380.402 130.386 380.524 130.409 380.636 130.457C380.749 130.506 380.849 130.578 380.93 130.67C381.014 130.764 381.075 130.876 381.108 130.998C381.141 131.119 381.145 131.247 381.12 131.37L380.87 133.59C380.87 133.65 380.87 133.69 380.87 133.71C380.87 133.71 380.95 133.71 381.01 133.71L382.84 132.39C382.94 132.309 383.056 132.251 383.18 132.218C383.304 132.185 383.433 132.179 383.56 132.2C383.683 132.224 383.798 132.277 383.897 132.353C383.995 132.43 384.075 132.528 384.13 132.64C384.212 132.753 384.263 132.884 384.281 133.022C384.298 133.16 384.281 133.3 384.23 133.43C384.121 133.648 383.936 133.819 383.71 133.91L381.66 134.83C381.6 134.83 381.57 134.86 381.57 134.92C381.57 134.92 381.57 134.98 381.66 135L383.71 135.93C383.831 135.976 383.941 136.048 384.031 136.141C384.121 136.235 384.189 136.347 384.23 136.47C384.272 136.591 384.285 136.72 384.268 136.847C384.25 136.974 384.203 137.095 384.13 137.2C384.076 137.312 383.996 137.409 383.897 137.484C383.798 137.559 383.682 137.609 383.56 137.63C383.436 137.656 383.308 137.656 383.184 137.63C383.06 137.604 382.943 137.553 382.84 137.48L381 136.16C380.94 136.16 380.9 136.16 380.86 136.16C380.82 136.16 380.86 136.22 380.86 136.27L381.11 138.5C381.133 138.625 381.126 138.754 381.09 138.875C381.053 138.997 380.988 139.108 380.9 139.2C380.81 139.287 380.703 139.353 380.586 139.396C380.469 139.439 380.344 139.458 380.22 139.45V139.45Z" fill="white"/>
<path d="M392.35 139.45C392.229 139.455 392.109 139.432 391.998 139.384C391.887 139.335 391.789 139.262 391.71 139.17C391.63 139.074 391.569 138.962 391.533 138.841C391.497 138.721 391.486 138.595 391.5 138.47L391.76 136.24C391.76 136.19 391.76 136.15 391.76 136.13C391.739 136.117 391.715 136.11 391.69 136.11C391.665 136.11 391.641 136.117 391.62 136.13L389.79 137.45C389.694 137.53 389.581 137.587 389.46 137.618C389.339 137.649 389.213 137.653 389.09 137.63C388.964 137.607 388.845 137.557 388.742 137.483C388.638 137.408 388.552 137.312 388.49 137.2C388.41 137.086 388.36 136.955 388.344 136.816C388.329 136.678 388.348 136.539 388.4 136.41C388.45 136.299 388.522 136.2 388.611 136.117C388.701 136.035 388.806 135.971 388.92 135.93L390.97 135C391.03 135 391.06 135 391.06 134.92C391.06 134.84 391.06 134.85 390.97 134.83L388.92 133.91C388.8 133.864 388.691 133.792 388.603 133.699C388.515 133.605 388.449 133.493 388.41 133.37C388.374 133.249 388.362 133.122 388.376 132.997C388.39 132.871 388.428 132.75 388.49 132.64C388.553 132.529 388.64 132.432 388.743 132.356C388.846 132.28 388.965 132.227 389.09 132.2C389.335 132.165 389.585 132.222 389.79 132.36L391.62 133.71C391.641 133.723 391.665 133.73 391.69 133.73C391.715 133.73 391.739 133.723 391.76 133.71C391.76 133.71 391.76 133.65 391.76 133.59L391.5 131.37C391.486 131.244 391.499 131.116 391.539 130.995C391.579 130.874 391.644 130.763 391.73 130.67C391.814 130.577 391.918 130.503 392.034 130.455C392.149 130.406 392.275 130.384 392.4 130.39C392.526 130.386 392.651 130.411 392.766 130.462C392.882 130.513 392.984 130.59 393.065 130.686C393.147 130.782 393.206 130.895 393.238 131.017C393.27 131.139 393.274 131.266 393.25 131.39L393 133.61C393 133.67 393 133.71 393 133.73C393.021 133.743 393.045 133.75 393.07 133.75C393.095 133.75 393.119 133.743 393.14 133.73L394.97 132.41C395.07 132.33 395.186 132.272 395.31 132.24C395.434 132.207 395.563 132.2 395.69 132.22C395.814 132.244 395.93 132.297 396.031 132.373C396.131 132.449 396.213 132.547 396.27 132.66C396.349 132.774 396.4 132.905 396.417 133.043C396.434 133.18 396.418 133.32 396.37 133.45C396.261 133.668 396.076 133.839 395.85 133.93L393.79 134.85C393.74 134.85 393.71 134.85 393.71 134.94C393.71 135.03 393.71 135 393.79 135.02L395.85 135.95C395.971 135.997 396.08 136.069 396.17 136.163C396.259 136.256 396.328 136.368 396.37 136.49C396.41 136.611 396.422 136.74 396.404 136.867C396.387 136.993 396.341 137.114 396.27 137.22C396.214 137.333 396.133 137.43 396.032 137.505C395.931 137.58 395.814 137.63 395.69 137.65C395.566 137.675 395.438 137.674 395.315 137.648C395.191 137.623 395.074 137.572 394.97 137.5L393.14 136.15C393.119 136.137 393.095 136.13 393.07 136.13C393.045 136.13 393.021 136.137 393 136.15C392.988 136.166 392.981 136.185 392.981 136.205C392.981 136.225 392.988 136.244 393 136.26L393.25 138.49C393.273 138.615 393.266 138.744 393.23 138.865C393.193 138.987 393.128 139.098 393.04 139.19C392.95 139.28 392.842 139.349 392.723 139.394C392.604 139.439 392.477 139.458 392.35 139.45V139.45Z" fill="white"/>
<path d="M404.47 139.45C404.351 139.455 404.232 139.432 404.122 139.383C404.013 139.335 403.917 139.262 403.84 139.17C403.76 139.074 403.699 138.962 403.663 138.841C403.627 138.721 403.616 138.595 403.63 138.47L403.88 136.24C403.88 136.19 403.88 136.15 403.88 136.13C403.88 136.11 403.8 136.13 403.74 136.13L401.91 137.45C401.814 137.53 401.701 137.588 401.58 137.619C401.459 137.65 401.333 137.654 401.21 137.63C400.958 137.558 400.745 137.389 400.616 137.161C400.486 136.933 400.452 136.663 400.52 136.41C400.632 136.225 400.8 136.081 401 136L403.06 135.07C403.11 135.07 403.14 135.07 403.14 134.99C403.14 134.91 403.14 134.92 403.06 134.9L401 133.98C400.881 133.931 400.775 133.858 400.687 133.765C400.599 133.672 400.532 133.561 400.49 133.44C400.426 133.194 400.458 132.933 400.58 132.71C400.642 132.6 400.727 132.503 400.829 132.428C400.93 132.352 401.046 132.298 401.17 132.27C401.415 132.229 401.667 132.286 401.87 132.43L403.7 133.78C403.76 133.78 403.81 133.78 403.84 133.78C403.87 133.78 403.84 133.72 403.84 133.66L403.59 131.44C403.575 131.314 403.587 131.187 403.625 131.066C403.662 130.946 403.726 130.834 403.81 130.74C403.896 130.647 404.001 130.573 404.119 130.525C404.236 130.476 404.363 130.454 404.49 130.46C404.612 130.456 404.734 130.479 404.846 130.527C404.959 130.576 405.059 130.648 405.14 130.74C405.224 130.834 405.285 130.946 405.318 131.068C405.351 131.189 405.355 131.317 405.33 131.44L405.08 133.66C405.08 133.72 405.08 133.76 405.08 133.78C405.08 133.78 405.16 133.78 405.22 133.78L407.05 132.46C407.15 132.379 407.266 132.321 407.39 132.288C407.514 132.255 407.643 132.249 407.77 132.27C407.892 132.294 408.008 132.347 408.107 132.423C408.205 132.499 408.285 132.598 408.34 132.71C408.419 132.824 408.47 132.955 408.487 133.093C408.504 133.23 408.488 133.37 408.44 133.5C408.331 133.718 408.146 133.889 407.92 133.98L405.87 134.9C405.81 134.9 405.78 134.93 405.78 134.99C405.78 134.99 405.78 135.05 405.87 135.07L408 136C408.121 136.046 408.231 136.118 408.321 136.211C408.411 136.305 408.479 136.417 408.52 136.54C408.562 136.661 408.575 136.79 408.558 136.917C408.54 137.044 408.493 137.165 408.42 137.27C408.366 137.382 408.286 137.479 408.187 137.554C408.088 137.629 407.972 137.679 407.85 137.7C407.726 137.726 407.598 137.726 407.474 137.7C407.35 137.674 407.233 137.623 407.13 137.55L405.3 136.2C405.24 136.2 405.2 136.2 405.16 136.2C405.12 136.2 405.16 136.26 405.16 136.31L405.41 138.54C405.433 138.665 405.426 138.794 405.39 138.915C405.353 139.037 405.288 139.148 405.2 139.24C405.101 139.326 404.984 139.39 404.858 139.426C404.732 139.462 404.6 139.47 404.47 139.45Z" fill="white"/>
<path d="M416.6 139.45C416.479 139.456 416.358 139.433 416.247 139.385C416.136 139.336 416.038 139.263 415.96 139.17C415.88 139.074 415.819 138.962 415.783 138.841C415.747 138.721 415.736 138.595 415.75 138.47L416.01 136.24C416.01 136.19 416.01 136.15 416.01 136.13C415.989 136.117 415.965 136.11 415.94 136.11C415.915 136.11 415.891 136.117 415.87 136.13L414 137.48C413.845 137.584 413.662 137.637 413.475 137.634C413.288 137.631 413.107 137.572 412.955 137.463C412.803 137.355 412.688 137.202 412.624 137.027C412.561 136.851 412.552 136.661 412.6 136.48C412.711 136.26 412.9 136.089 413.13 136L415.18 135.07C415.24 135.07 415.26 135.07 415.26 134.99C415.26 134.91 415.26 134.92 415.18 134.9L413.13 133.98C413.01 133.934 412.901 133.862 412.813 133.769C412.725 133.675 412.659 133.563 412.62 133.44C412.581 133.32 412.568 133.192 412.582 133.066C412.596 132.941 412.636 132.819 412.7 132.71C412.762 132.6 412.847 132.503 412.949 132.428C413.05 132.352 413.166 132.298 413.29 132.27C413.538 132.232 413.792 132.289 414 132.43L415.83 133.78C415.851 133.793 415.875 133.8 415.9 133.8C415.925 133.8 415.949 133.793 415.97 133.78C415.97 133.78 415.97 133.72 415.97 133.66L415.71 131.44C415.696 131.314 415.709 131.186 415.749 131.065C415.789 130.944 415.854 130.833 415.94 130.74C416.024 130.647 416.128 130.573 416.244 130.525C416.359 130.476 416.485 130.454 416.61 130.46C416.736 130.456 416.861 130.481 416.976 130.532C417.092 130.583 417.194 130.66 417.275 130.756C417.357 130.852 417.416 130.965 417.448 131.087C417.48 131.209 417.484 131.336 417.46 131.46L417.2 133.68C417.2 133.74 417.2 133.78 417.2 133.8C417.221 133.813 417.245 133.82 417.27 133.82C417.295 133.82 417.319 133.813 417.34 133.8L419.17 132.48C419.27 132.4 419.386 132.342 419.51 132.31C419.634 132.277 419.763 132.27 419.89 132.29C420.014 132.314 420.13 132.367 420.231 132.443C420.331 132.519 420.413 132.617 420.47 132.73C420.549 132.844 420.6 132.975 420.617 133.113C420.634 133.25 420.618 133.39 420.57 133.52C420.459 133.74 420.27 133.911 420.04 134L417.99 134.92C417.93 134.92 417.91 134.92 417.91 135.01C417.91 135.1 417.91 135.07 417.99 135.09L420.04 136.02C420.163 136.065 420.274 136.137 420.366 136.23C420.458 136.324 420.527 136.436 420.57 136.56C420.61 136.681 420.622 136.81 420.604 136.937C420.587 137.063 420.541 137.184 420.47 137.29C420.414 137.403 420.333 137.5 420.232 137.575C420.131 137.65 420.014 137.7 419.89 137.72C419.766 137.745 419.638 137.744 419.515 137.718C419.391 137.693 419.274 137.642 419.17 137.57L417.34 136.22C417.319 136.207 417.295 136.2 417.27 136.2C417.245 136.2 417.221 136.207 417.2 136.22C417.2 136.22 417.2 136.28 417.2 136.33L417.46 138.56C417.483 138.685 417.476 138.814 417.44 138.935C417.403 139.057 417.338 139.168 417.25 139.26C417.066 139.406 416.833 139.474 416.6 139.45V139.45Z" fill="#67ACFF"/>
</svg>
